<svg width="36" height="36" viewBox="0 0 36 36" fill="none" xmlns="http://www.w3.org/2000/svg">
<path d="M8.4375 18C8.4375 16.2164 8.92891 14.5455 9.78265 13.1149V7.04636H3.71412C1.30556 10.1744 0 13.9867 0 18C0 22.0133 1.30556 25.8256 3.71412 28.9536H9.78265V22.8851C8.92891 21.4544 8.4375 19.7836 8.4375 18Z" fill="#FBBD00"/>
<path d="M18 27.5625L13.7812 31.7812L18 36C22.0134 36 25.8256 34.6944 28.9536 32.2859V26.2238H22.8916C21.4484 27.0806 19.7705 27.5625 18 27.5625Z" fill="#0F9D58"/>
<path d="M9.78264 22.8851L3.71411 28.9536C4.19097 29.5729 4.71023 30.166 5.2721 30.728C8.67185 34.1276 13.192 36 18 36V27.5625C14.5108 27.5625 11.4527 25.6837 9.78264 22.8851Z" fill="#31AA52"/>
<path d="M36 18C36 16.9049 35.9009 15.8077 35.7053 14.7391L35.547 13.8744H18V22.3119H26.5396C25.7103 23.9615 24.4353 25.3073 22.8915 26.2239L28.9536 32.286C29.5729 31.8091 30.166 31.2899 30.7279 30.728C34.1276 27.3282 36 22.808 36 18Z" fill="#3C79E6"/>
<path d="M24.7617 11.2383L25.5075 11.984L31.4737 6.01784L30.728 5.2721C27.3282 1.87235 22.808 0 18 0L13.7812 4.21875L18 8.4375C20.5542 8.4375 22.9556 9.43214 24.7617 11.2383Z" fill="#CF2D48"/>
<path d="M18 8.4375V0C13.192 0 8.67186 1.87235 5.27204 5.27203C4.71017 5.8339 4.19091 6.42698 3.71405 7.04637L9.78258 13.1149C11.4527 10.3162 14.5108 8.4375 18 8.4375Z" fill="#EB4132"/>
</svg>
