<svg width="25" height="26" viewBox="0 0 25 26" fill="none" xmlns="http://www.w3.org/2000/svg">
<path d="M23.874 9.07419L12.834 0.24219C12.6382 0.0854185 12.3948 0 12.144 0C11.8932 0 11.6498 0.0854185 11.454 0.24219L0.414 9.07419C0.284756 9.17767 0.180442 9.30889 0.108778 9.45814C0.0371147 9.60739 -6.2041e-05 9.77085 7.77174e-08 9.93641V24.2884C7.77174e-08 24.5812 0.116314 24.862 0.323354 25.0691C0.530394 25.2761 0.811201 25.3924 1.104 25.3924H8.832V16.5604H15.456V25.3924H23.184C23.4768 25.3924 23.7576 25.2761 23.9646 25.0691C24.1717 24.862 24.288 24.5812 24.288 24.2884V9.93641C24.2881 9.77085 24.2509 9.60739 24.1792 9.45814C24.1076 9.30889 24.0032 9.17767 23.874 9.07419V9.07419Z" fill="white"/>
</svg>
