<svg width="48" height="41" viewBox="0 0 48 41" fill="none" xmlns="http://www.w3.org/2000/svg">
<path d="M31.5626 25.3572C30.7881 25.3572 30.1589 24.8639 30.1567 24.2538C30.1542 23.6429 30.7819 23.1458 31.5586 23.1441C35.0911 23.1354 38.4518 21.4572 41.0215 18.4182C43.4879 15.5013 44.937 11.6869 45.1578 7.5785H38.9638C38.187 7.5785 37.5575 7.08314 37.5575 6.47194C37.5575 5.86074 38.187 5.36539 38.9638 5.36539H46.5938C47.3705 5.36539 48 5.86074 48 6.47194C48 11.4301 46.3532 16.1079 43.3634 19.6443C40.2572 23.3173 36.0681 25.3462 31.5674 25.3572C31.5659 25.3572 31.5645 25.3572 31.5626 25.3572Z" fill="#FF8E1D"/>
<path d="M16.4374 25.3572C16.4355 25.3572 16.4345 25.3572 16.433 25.3572C11.9323 25.3462 7.7428 23.3173 4.63696 19.6443C1.64685 16.1079 0 11.4301 0 6.47194C0 5.86074 0.629517 5.36539 1.40625 5.36539H9.03626C9.81299 5.36539 10.4425 5.86074 10.4425 6.47194C10.4425 7.08314 9.81299 7.5785 9.03626 7.5785H2.84216C3.06299 11.6869 4.51209 15.5013 6.97852 18.4182C9.54822 21.4572 12.9089 23.1354 16.4414 23.1441C17.2181 23.1458 17.8458 23.6429 17.8433 24.2538C17.8411 24.8639 17.2119 25.3569 16.4374 25.3572Z" fill="#FFB023"/>
<path d="M39.0626 2.63934H8.93738C8.16101 2.63934 7.53113 3.1347 7.53113 3.7459C7.53113 10.2461 9.15088 16.3748 12.0916 21.0027C13.9757 23.9677 16.2799 26.12 18.828 27.3522V33.3769C18.828 33.9881 19.4579 34.4834 20.2343 34.4834H27.7657C28.5425 34.4834 29.172 33.9881 29.172 33.3769V27.3522C31.7201 26.1203 34.0247 23.9677 35.9084 21.0027C38.8491 16.3748 40.4689 10.2461 40.4689 3.7459C40.4689 3.1347 39.8394 2.63934 39.0626 2.63934Z" fill="#FFD12B"/>
<path d="M29.172 33.3769V27.3522C31.7201 26.1203 34.0247 23.9677 35.9084 21.0027C38.8491 16.3748 40.4689 10.2461 40.4689 3.7459C40.4689 3.1347 39.8394 2.63934 39.0626 2.63934H24V34.4834H27.7657C28.5425 34.4834 29.172 33.9881 29.172 33.3769Z" fill="#FFB023"/>
<path d="M31.5311 32.2703H16.4689C13.6172 32.2703 11.2969 34.0961 11.2969 36.3401V39.3033C11.2969 39.9142 11.9264 40.4095 12.7031 40.4095H35.2969C36.0736 40.4095 36.7031 39.9142 36.7031 39.3033V36.3401C36.7031 34.0961 34.3832 32.2703 31.5311 32.2703Z" fill="#FF8E1D"/>
<path d="M31.5311 32.2703H24V40.4095H35.2969C36.0736 40.4095 36.7031 39.9142 36.7031 39.3033V36.3401C36.7031 34.0961 34.3832 32.2703 31.5311 32.2703Z" fill="#FF6D15"/>
<path d="M36.8031 40.4095H11.1969C10.4205 40.4095 9.79065 39.9142 9.79065 39.3033C9.79065 38.6921 10.4205 38.1967 11.1969 38.1967H36.8031C37.5798 38.1967 38.2094 38.6921 38.2094 39.3033C38.2094 39.9142 37.5798 40.4095 36.8031 40.4095Z" fill="#FFB023"/>
<path d="M36.8031 38.1967H24V40.4095H36.8031C37.5798 40.4095 38.2094 39.9142 38.2094 39.3033C38.2094 38.6921 37.5798 38.1967 36.8031 38.1967Z" fill="#FF8E1D"/>
<path d="M22.721 23.384C22.097 23.384 21.473 23.296 20.849 23.12C20.241 22.944 19.673 22.672 19.145 22.304C18.617 21.936 18.153 21.48 17.753 20.936C17.369 20.376 17.081 19.712 16.889 18.944L19.745 17.84C19.921 18.64 20.257 19.28 20.753 19.76C21.265 20.24 21.913 20.48 22.697 20.48C23.081 20.48 23.433 20.416 23.753 20.288C24.089 20.144 24.377 19.952 24.617 19.712C24.873 19.472 25.065 19.192 25.193 18.872C25.337 18.536 25.409 18.168 25.409 17.768C25.409 17.384 25.337 17.032 25.193 16.712C25.065 16.376 24.881 16.088 24.641 15.848C24.401 15.592 24.113 15.4 23.777 15.272C23.457 15.128 23.097 15.056 22.697 15.056C22.201 15.056 21.761 15.168 21.377 15.392C20.993 15.6 20.665 15.864 20.393 16.184L17.345 14.792L18.305 6.584H27.545V9.344H20.921L20.297 13.184L20.489 13.232C20.809 12.96 21.201 12.728 21.665 12.536C22.129 12.344 22.689 12.248 23.345 12.248C24.033 12.248 24.689 12.384 25.313 12.656C25.937 12.912 26.489 13.28 26.969 13.76C27.449 14.24 27.833 14.824 28.121 15.512C28.409 16.184 28.553 16.936 28.553 17.768C28.553 18.584 28.409 19.336 28.121 20.024C27.833 20.712 27.425 21.304 26.897 21.8C26.385 22.296 25.769 22.688 25.049 22.976C24.345 23.248 23.569 23.384 22.721 23.384Z" fill="white"/>
</svg>
